<?xml version="1.0" encoding="utf-8"?>
<!-- Generated by IcoMoon.io -->
<!DOCTYPE svg PUBLIC "-//W3C//DTD SVG 1.1//EN" "http://www.w3.org/Graphics/SVG/1.1/DTD/svg11.dtd">
<svg version="1.1" xmlns="http://www.w3.org/2000/svg" xmlns:xlink="http://www.w3.org/1999/xlink" width="32" height="32" viewBox="0 0 32 32">
<path d="M12.571 5.714v13.714q0 0.464-0.339 0.804t-0.804 0.339v10.286q0 0.464-0.339 0.804t-0.804 0.339h-9.143q-0.464 0-0.804-0.339t-0.339-0.804v-9.143l4.446-15.589q0.125-0.411 0.554-0.411h7.571zM18.286 5.714v12.571h-4.571v-12.571h4.571zM32 21.714v9.143q0 0.464-0.339 0.804t-0.804 0.339h-9.143q-0.464 0-0.804-0.339t-0.339-0.804v-10.286q-0.464 0-0.804-0.339t-0.339-0.804v-13.714h7.571q0.429 0 0.554 0.411zM13.143 0.571v4h-6.286v-4q0-0.25 0.161-0.411t0.411-0.161h5.143q0.25 0 0.411 0.161t0.161 0.411zM25.143 0.571v4h-6.286v-4q0-0.25 0.161-0.411t0.411-0.161h5.143q0.25 0 0.411 0.161t0.161 0.411z"></path>
</svg>
