<?xml version="1.0" encoding="utf-8"?>
<!-- Generated by IcoMoon.io -->
<!DOCTYPE svg PUBLIC "-//W3C//DTD SVG 1.1//EN" "http://www.w3.org/Graphics/SVG/1.1/DTD/svg11.dtd">
<svg version="1.1" xmlns="http://www.w3.org/2000/svg" xmlns:xlink="http://www.w3.org/1999/xlink" width="27" height="32" viewBox="0 0 27 32">
<path d="M15.018 18.804l2.643 2.643-2.661 2.661zM15 7.893l2.661 2.661-2.643 2.643zM12.679 29.75l8.286-8.286-5.464-5.464 5.464-5.464-8.286-8.286v10.911l-4.554-4.554-1.661 1.661 5.714 5.732-5.714 5.732 1.661 1.661 4.554-4.554v10.911zM25.518 16q0 3.732-0.571 6.527t-1.563 4.589-2.509 2.902-3.241 1.545-3.92 0.438-3.92-0.438-3.241-1.545-2.509-2.902-1.563-4.589-0.571-6.527 0.571-6.527 1.563-4.589 2.509-2.902 3.241-1.545 3.92-0.438 3.92 0.438 3.241 1.545 2.509 2.902 1.563 4.589 0.571 6.527z"></path>
</svg>
