<?xml version="1.0" encoding="utf-8"?>
<!-- Generated by IcoMoon.io -->
<!DOCTYPE svg PUBLIC "-//W3C//DTD SVG 1.1//EN" "http://www.w3.org/Graphics/SVG/1.1/DTD/svg11.dtd">
<svg version="1.1" xmlns="http://www.w3.org/2000/svg" xmlns:xlink="http://www.w3.org/1999/xlink" width="32" height="32" viewBox="0 0 32 32">
<path d="M31.429 16q0 3.143-1.223 6t-3.286 4.92-4.92 3.286-6 1.223-6-1.223-4.92-3.286-3.286-4.92-1.223-6q0-3.804 1.732-7.116t4.732-5.455 6.679-2.696v4.071q-3.946 0.804-6.545 3.946t-2.598 7.25q0 2.321 0.911 4.438t2.438 3.643 3.643 2.438 4.438 0.911 4.438-0.911 3.643-2.438 2.438-3.643 0.911-4.438q0-4.107-2.598-7.25t-6.545-3.946v-4.071q3.679 0.554 6.679 2.696t4.732 5.455 1.732 7.116z"></path>
</svg>
