<?xml version="1.0" encoding="utf-8"?>
<!-- Generated by IcoMoon.io -->
<!DOCTYPE svg PUBLIC "-//W3C//DTD SVG 1.1//EN" "http://www.w3.org/Graphics/SVG/1.1/DTD/svg11.dtd">
<svg version="1.1" xmlns="http://www.w3.org/2000/svg" xmlns:xlink="http://www.w3.org/1999/xlink" width="28" height="32" viewBox="0 0 28 32">
<path d="M27.429 9.143v14.982q0 0.857-0.875 1.107-3.107 0.929-6.036 0.929-1.304 0-3.848-0.527t-4.063-0.527q-2.929 0-6.607 0.857v6.036h-2.857v-24.429q-1.125-0.446-1.804-1.446t-0.679-2.214q0-1.625 1.143-2.768t2.768-1.143 2.768 1.143 1.143 2.768q0 1.214-0.679 2.214t-1.804 1.446v1.214q3.393-0.786 6.125-0.786 1.768 0 3.536 0.268 0.25 0.036 1.991 0.402t2.67 0.366q1.375 0 2.946-0.321 0.196-0.036 1.429-0.375t1.589-0.339q0.464 0 0.804 0.339t0.339 0.804z"></path>
</svg>
