<?xml version="1.0" encoding="utf-8"?>
<!-- Generated by IcoMoon.io -->
<!DOCTYPE svg PUBLIC "-//W3C//DTD SVG 1.1//EN" "http://www.w3.org/Graphics/SVG/1.1/DTD/svg11.dtd">
<svg version="1.1" xmlns="http://www.w3.org/2000/svg" xmlns:xlink="http://www.w3.org/1999/xlink" width="27" height="32" viewBox="0 0 27 32">
<path d="M23.607 16q0 0.804-0.089 1.357l-4.214-0.25 4 1.393q-0.339 1.304-1.036 2.518l-3.821-1.839 3.161 2.821q-0.786 1.089-1.911 1.929l-2.804-3.179 1.839 3.839q-1.089 0.661-2.5 1.054l-1.411-4.071 0.25 4.286q-0.679 0.107-1.357 0.107t-1.357-0.107l0.25-4.25-1.393 4.036q-1.321-0.339-2.5-1.054l1.839-3.839-2.804 3.179q-1.054-0.768-1.929-1.929l3.179-2.821-3.821 1.857q-0.696-1.232-1.036-2.518l4-1.411-4.232 0.25q-0.089-0.75-0.089-1.357 0-0.625 0.089-1.375l4.25 0.25-4.018-1.411q0.339-1.304 1.036-2.5l3.821 1.857-3.161-2.839q0.821-1.089 1.911-1.929l2.821 3.179-1.839-3.839q1.196-0.696 2.5-1.036l1.375 4-0.232-4.214q0.643-0.107 1.339-0.107 0.679 0 1.357 0.107l-0.25 4.232 1.393-4.018q1.321 0.339 2.5 1.054l-1.839 3.821 2.821-3.179q1.089 0.839 1.911 1.929l-3.161 2.839 3.804-1.857q0.661 1.107 1.036 2.518l-4 1.393 4.232-0.25q0.089 0.554 0.089 1.375zM24.143 16q0-2.857-1.402-5.277t-3.804-3.821-5.223-1.402q-2.125 0-4.054 0.83t-3.33 2.232-2.223 3.348-0.821 4.089q0 2.125 0.821 4.071t2.223 3.348 3.33 2.232 4.054 0.83q2.821 0 5.223-1.402t3.804-3.821 1.402-5.259zM25.446 9.161v13.679l-11.732 6.839-11.732-6.839v-13.679l11.732-6.839zM13.714 30.696l12.643-7.357v-14.696l-12.643-7.339-12.643 7.339v14.696zM27.429 8v16l-13.714 8-13.714-8v-16l13.714-8z"></path>
</svg>
