<?xml version="1.0" encoding="utf-8"?>
<!-- Generated by IcoMoon.io -->
<!DOCTYPE svg PUBLIC "-//W3C//DTD SVG 1.1//EN" "http://www.w3.org/Graphics/SVG/1.1/DTD/svg11.dtd">
<svg version="1.1" xmlns="http://www.w3.org/2000/svg" xmlns:xlink="http://www.w3.org/1999/xlink" width="30" height="32" viewBox="0 0 30 32">
<path d="M11.429 18v-4q0-0.286-0.286-0.286h-1.714q-0.286 0-0.286 0.286v4q0 0.286 0.286 0.286h1.714q0.286 0 0.286-0.286zM20.571 18v-4q0-0.286-0.286-0.286h-1.714q-0.286 0-0.286 0.286v4q0 0.286 0.286 0.286h1.714q0.286 0 0.286-0.286zM29.714 18.571v13.429h-11.429v-5.714q0-1.429-1-2.429t-2.429-1-2.429 1-1 2.429v5.714h-11.429v-13.429q0-0.286 0.286-0.286h1.714q0.286 0 0.286 0.286v2h2.286v-11.143q0-0.286 0.286-0.286h1.714q0.286 0 0.286 0.286v2h2.286v-2q0-0.286 0.286-0.286h1.714q0.286 0 0.286 0.286v2h2.286v-2q0-0.107 0.045-0.17t0.152-0.089 0.17-0.036 0.205 0 0.161 0.009v-6.982q-0.571-0.268-0.571-0.893 0-0.411 0.295-0.696t0.688-0.286 0.688 0.286 0.295 0.696q0 0.625-0.571 0.893v0.304q0.804-0.179 1.482-0.179 0.375 0 1.063 0.134t0.973 0.134q0.304 0 0.839-0.134t0.661-0.134q0.286 0 0.286 0.286v3.75q0 0.268-0.625 0.384t-1.107 0.116q-0.321 0-0.973-0.134t-0.991-0.134q-0.714 0-1.607 0.214v2.375q0.018 0 0.161-0.009t0.205 0 0.17 0.036 0.152 0.089 0.045 0.17v2h2.286v-2q0-0.286 0.286-0.286h1.714q0.286 0 0.286 0.286v2h2.286v-2q0-0.286 0.286-0.286h1.714q0.286 0 0.286 0.286v11.143h2.286v-2q0-0.286 0.286-0.286h1.714q0.286 0 0.286 0.286z"></path>
</svg>
