<?xml version="1.0" encoding="utf-8"?>
<!-- Generated by IcoMoon.io -->
<!DOCTYPE svg PUBLIC "-//W3C//DTD SVG 1.1//EN" "http://www.w3.org/Graphics/SVG/1.1/DTD/svg11.dtd">
<svg version="1.1" xmlns="http://www.w3.org/2000/svg" xmlns:xlink="http://www.w3.org/1999/xlink" width="27" height="32" viewBox="0 0 27 32">
<path d="M16.375 16.161q0-0.589-0.107-1.143h-6.464v2.357h3.875q-0.214 1.357-1.33 2.152t-2.545 0.795q-1.768 0-3.018-1.277t-1.25-3.045 1.25-3.045 3.018-1.277q1.661 0 2.732 1.054l1.857-1.804q-1.929-1.786-4.589-1.786-2.857 0-4.857 2.009t-2 4.848 2 4.848 4.857 2.009q2.946 0 4.759-1.875t1.812-4.821zM22.536 16.982h1.946v-1.964h-1.946v-1.964h-1.964v1.964h-1.964v1.964h1.964v1.964h1.964v-1.964zM27.429 16q0 3.732-1.839 6.884t-4.991 4.991-6.884 1.839-6.884-1.839-4.991-4.991-1.839-6.884 1.839-6.884 4.991-4.991 6.884-1.839 6.884 1.839 4.991 4.991 1.839 6.884z"></path>
</svg>
