<?xml version="1.0" encoding="utf-8"?>
<!-- Generated by IcoMoon.io -->
<!DOCTYPE svg PUBLIC "-//W3C//DTD SVG 1.1//EN" "http://www.w3.org/Graphics/SVG/1.1/DTD/svg11.dtd">
<svg version="1.1" xmlns="http://www.w3.org/2000/svg" xmlns:xlink="http://www.w3.org/1999/xlink" width="33" height="32" viewBox="0 0 33 32">
<path d="M7.875 12q0.571 0 0.929 0.464 4.75 6.5 6.464 13.821h-7.964q-2.268-7.875-6.554-13.375-0.214-0.286-0.054-0.598t0.518-0.313h6.661zM17.857 18.375q-0.875 3.554-2.232 7.018-1.411-5.536-4.571-10.607 0.714-3.946 0.786-8.018 3.768 6.071 6.018 11.607zM19.625 5.714q4.196 5.786 6.866 12.473t3.295 13.813h-8.054q-0.732-11.875-9.875-26.286h7.768zM32 16q0 7.571-1.804 14.5-1.196-10-6.411-19.339-0.446-5.375-1.893-10.429-0.071-0.286 0.098-0.509t0.455-0.223h6.411q0.375 0 0.688 0.232t0.402 0.589q2.054 7.304 2.054 15.179z"></path>
</svg>
