<?xml version="1.0" encoding="utf-8"?>
<!-- Generated by IcoMoon.io -->
<!DOCTYPE svg PUBLIC "-//W3C//DTD SVG 1.1//EN" "http://www.w3.org/Graphics/SVG/1.1/DTD/svg11.dtd">
<svg version="1.1" xmlns="http://www.w3.org/2000/svg" xmlns:xlink="http://www.w3.org/1999/xlink" width="27" height="32" viewBox="0 0 27 32">
<path d="M25.143 2.286q0 4.661-1.902 8.241t-4.759 5.473q2.857 1.893 4.759 5.473t1.902 8.241h1.714q0.25 0 0.411 0.161t0.161 0.411v1.143q0 0.25-0.161 0.411t-0.411 0.161h-26.286q-0.25 0-0.411-0.161t-0.161-0.411v-1.143q0-0.25 0.161-0.411t0.411-0.161h1.714q0-4.661 1.902-8.241t4.759-5.473q-2.857-1.893-4.759-5.473t-1.902-8.241h-1.714q-0.25 0-0.411-0.161t-0.161-0.411v-1.143q0-0.25 0.161-0.411t0.411-0.161h26.286q0.25 0 0.411 0.161t0.161 0.411v1.143q0 0.25-0.161 0.411t-0.411 0.161h-1.714zM22.857 2.286h-18.286q0 3.679 1.518 6.857h15.25q1.518-3.179 1.518-6.857zM21.839 24q-0.964-2.518-2.598-4.313t-3.473-2.545h-4.107q-1.839 0.75-3.473 2.545t-2.598 4.313h16.25z"></path>
</svg>
