<?xml version="1.0" encoding="utf-8"?>
<!-- Generated by IcoMoon.io -->
<!DOCTYPE svg PUBLIC "-//W3C//DTD SVG 1.1//EN" "http://www.w3.org/Graphics/SVG/1.1/DTD/svg11.dtd">
<svg version="1.1" xmlns="http://www.w3.org/2000/svg" xmlns:xlink="http://www.w3.org/1999/xlink" width="27" height="32" viewBox="0 0 27 32">
<path d="M26.857 28.571q0.25 0 0.411 0.161t0.161 0.411v2.286q0 0.25-0.161 0.411t-0.411 0.161h-26.286q-0.25 0-0.411-0.161t-0.161-0.411v-2.286q0-0.25 0.161-0.411t0.411-0.161h26.286zM2.321 27.429q0.054-0.982 0.286-1.911t0.536-1.696 0.821-1.554 0.955-1.357 1.152-1.241 1.179-1.071 1.259-0.982 1.188-0.848 1.161-0.768q-0.768-0.5-1.161-0.768t-1.188-0.848-1.259-0.982-1.179-1.071-1.152-1.241-0.955-1.357-0.821-1.554-0.536-1.696-0.286-1.911h22.786q-0.054 0.982-0.286 1.911t-0.536 1.696-0.821 1.554-0.955 1.357-1.152 1.241-1.179 1.071-1.259 0.982-1.188 0.848-1.161 0.768q0.768 0.5 1.161 0.768t1.188 0.848 1.259 0.982 1.179 1.071 1.152 1.241 0.955 1.357 0.821 1.554 0.536 1.696 0.286 1.911h-22.786zM26.857 0q0.25 0 0.411 0.161t0.161 0.411v2.286q0 0.25-0.161 0.411t-0.411 0.161h-26.286q-0.25 0-0.411-0.161t-0.161-0.411v-2.286q0-0.25 0.161-0.411t0.411-0.161h26.286z"></path>
</svg>
