<?xml version="1.0" encoding="utf-8"?>
<!-- Generated by IcoMoon.io -->
<!DOCTYPE svg PUBLIC "-//W3C//DTD SVG 1.1//EN" "http://www.w3.org/Graphics/SVG/1.1/DTD/svg11.dtd">
<svg version="1.1" xmlns="http://www.w3.org/2000/svg" xmlns:xlink="http://www.w3.org/1999/xlink" width="25" height="32" viewBox="0 0 25 32">
<path d="M17.714 11.143v8.857q0 0.25-0.161 0.411t-0.411 0.161h-2.857q-0.25 0-0.411-0.161t-0.161-0.411v-8.857q0-2-1.429-3.429t-3.429-1.429h-4.857v20.571q0 0.25-0.161 0.411t-0.411 0.161h-2.857q-0.25 0-0.411-0.161t-0.161-0.411v-24q0-0.25 0.161-0.411t0.411-0.161h8.286q2.411 0 4.446 1.188t3.223 3.223 1.188 4.446zM24.571 2.857v15.714q0 2.411-1.188 4.446t-3.223 3.223-4.446 1.188h-8.286q-0.25 0-0.411-0.161t-0.161-0.411v-17.143q0-0.25 0.161-0.411t0.411-0.161h2.857q0.25 0 0.411 0.161t0.161 0.411v13.714h4.857q2 0 3.429-1.429t1.429-3.429v-15.714q0-0.25 0.161-0.411t0.411-0.161h2.857q0.25 0 0.411 0.161t0.161 0.411z"></path>
</svg>
