<?xml version="1.0" encoding="utf-8"?>
<!-- Generated by IcoMoon.io -->
<!DOCTYPE svg PUBLIC "-//W3C//DTD SVG 1.1//EN" "http://www.w3.org/Graphics/SVG/1.1/DTD/svg11.dtd">
<svg version="1.1" xmlns="http://www.w3.org/2000/svg" xmlns:xlink="http://www.w3.org/1999/xlink" width="37" height="32" viewBox="0 0 37 32">
<path d="M33.804 7l2.768 22.714q-2.339 0-4.589-1.018-3.571-1.625-7.018-1.625-4.036 0-6.679 2.643-2.643-2.643-6.679-2.643-3.446 0-7.018 1.625-2.286 1.018-4.5 1.018h-0.089l2.768-22.714q4-2.268 8.607-2.268 4.161 0 6.911 1.893 2.75-1.893 6.911-1.893 4.607 0 8.607 2.268zM24.964 24.625q2.304 0 4.143 0.509t4.643 1.67l-2.214-18.232q-3.054-1.393-6.571-1.393-4 0-6.679 2.518-2.679-2.518-6.679-2.518-3.518 0-6.571 1.393l-2.214 18.232q1.875-0.768 2.955-1.161t2.652-0.705 3.179-0.313q3.607 0 6.679 1.929 3.071-1.929 6.679-1.929zM25.679 24.018l-0.982-16.196q-3.768 0.071-6.411 2.768-2.714-2.768-6.679-2.768-3.143 0-6 1.179l-2.036 16.804q2.214-0.911 4.080-1.357t3.955-0.446q3.732 0 6.679 1.821 3.071-1.911 6.679-1.821z"></path>
</svg>
