<?xml version="1.0" encoding="utf-8"?>
<!-- Generated by IcoMoon.io -->
<!DOCTYPE svg PUBLIC "-//W3C//DTD SVG 1.1//EN" "http://www.w3.org/Graphics/SVG/1.1/DTD/svg11.dtd">
<svg version="1.1" xmlns="http://www.w3.org/2000/svg" xmlns:xlink="http://www.w3.org/1999/xlink" width="32" height="32" viewBox="0 0 32 32">
<path d="M9.143 0q0.232 0 0.402 0.17t0.17 0.402v26.286q0 0.357-0.304 0.5l-8.571 4.571q-0.125 0.071-0.268 0.071-0.232 0-0.402-0.17t-0.17-0.402v-26.286q0-0.357 0.304-0.5l8.571-4.571q0.125-0.071 0.268-0.071zM31.429 0q0.232 0 0.402 0.17t0.17 0.402v26.286q0 0.357-0.304 0.5l-8.571 4.571q-0.125 0.071-0.268 0.071-0.232 0-0.402-0.17t-0.17-0.402v-26.286q0-0.357 0.304-0.5l8.571-4.571q0.125-0.071 0.268-0.071zM11.429 0q0.143 0 0.25 0.054l9.143 4.571q0.321 0.179 0.321 0.518v26.286q0 0.232-0.17 0.402t-0.402 0.17q-0.143 0-0.25-0.054l-9.143-4.571q-0.321-0.179-0.321-0.518v-26.286q0-0.232 0.17-0.402t0.402-0.17z"></path>
</svg>
