<?xml version="1.0" encoding="utf-8"?>
<!-- Generated by IcoMoon.io -->
<!DOCTYPE svg PUBLIC "-//W3C//DTD SVG 1.1//EN" "http://www.w3.org/Graphics/SVG/1.1/DTD/svg11.dtd">
<svg version="1.1" xmlns="http://www.w3.org/2000/svg" xmlns:xlink="http://www.w3.org/1999/xlink" width="27" height="32" viewBox="0 0 27 32">
<path d="M12.571 21.143v-10.286q0-0.25-0.161-0.411t-0.411-0.161h-4.571q-0.25 0-0.411 0.161t-0.161 0.411v10.286q0 0.25 0.161 0.411t0.411 0.161h4.571q0.25 0 0.411-0.161t0.161-0.411zM20.571 21.143v-10.286q0-0.25-0.161-0.411t-0.411-0.161h-4.571q-0.25 0-0.411 0.161t-0.161 0.411v10.286q0 0.25 0.161 0.411t0.411 0.161h4.571q0.25 0 0.411-0.161t0.161-0.411zM27.429 16q0 3.732-1.839 6.884t-4.991 4.991-6.884 1.839-6.884-1.839-4.991-4.991-1.839-6.884 1.839-6.884 4.991-4.991 6.884-1.839 6.884 1.839 4.991 4.991 1.839 6.884z"></path>
</svg>
