<?xml version="1.0" encoding="utf-8"?>
<!-- Generated by IcoMoon.io -->
<!DOCTYPE svg PUBLIC "-//W3C//DTD SVG 1.1//EN" "http://www.w3.org/Graphics/SVG/1.1/DTD/svg11.dtd">
<svg version="1.1" xmlns="http://www.w3.org/2000/svg" xmlns:xlink="http://www.w3.org/1999/xlink" width="41" height="32" viewBox="0 0 41 32">
<path d="M41.143 0q-1.232 0.821-2.232 1.643t-1.589 1.446-1.063 1.277-0.67 1.027-0.393 0.795-0.25 0.527q-0.179 0.321-0.634 2.437t-0.866 2.938q-0.268 0.518-0.893 1.080t-1.205 0.902-1.295 0.732-0.857 0.5q-0.839 0.554-2.696 4.125-6.089-0.25-11.25 2.821-1.643 0.946-5.411 3.196 0.839-0.286 1.536-0.554t0.982-0.393l0.268-0.125q1.268-0.482 2.911-1.152t2.384-0.955 1.929-0.616 2.545-0.563q3.321-0.554 8.304 0.125 0.018 0 0.179 0.054 0.196 0.107 0.25 0.304t-0.054 0.393l-3.464 6.161q-0.268 0.518-0.839 0.393-2.286-0.429-6.321-0.429-2.607 0-7.179 0.795t-7 0.83q-1.464 0.018-2.661-0.232t-1.911-0.661-1.089-0.714-0.589-0.607l-0.018-0.018v-0.036q0-0.107 0.107-0.107 2.464 0 6.625-0.982 3.429-6.536 6.688-9.357t6.848-2.821q0.089 0 0.259 0.009t0.679 0.089 0.982 0.214 1.098 0.438 1.125 0.705 0.964 1.054 0.714 1.473l1.821-3.161q0.036-0.071 0.375-0.759t0.795-1.545 1.089-1.955 1.5-2.384 1.795-2.446q1.179-1.464 2.286-2.527t2.17-1.723 1.652-0.955 1.571-0.705z"></path>
</svg>
