<?xml version="1.0" encoding="utf-8"?>
<!-- Generated by IcoMoon.io -->
<!DOCTYPE svg PUBLIC "-//W3C//DTD SVG 1.1//EN" "http://www.w3.org/Graphics/SVG/1.1/DTD/svg11.dtd">
<svg version="1.1" xmlns="http://www.w3.org/2000/svg" xmlns:xlink="http://www.w3.org/1999/xlink" width="32" height="32" viewBox="0 0 32 32">
<path d="M31.339 8.089q0.661 0.661 0.661 1.607t-0.661 1.625l-7.161 7.143 2.679 2.679-2.857 2.857q-2.911 2.911-6.955 3.33t-7.348-1.795l-6.464 6.464h-3.232v-3.232l6.464-6.464q-2.214-3.304-1.795-7.348t3.33-6.955l2.857-2.857 2.679 2.679 7.143-7.161q0.679-0.661 1.625-0.661t1.607 0.661 0.661 1.616-0.661 1.616l-7.143 7.161 4.179 4.179 7.161-7.143q0.679-0.661 1.625-0.661t1.607 0.661z"></path>
</svg>
