<?xml version="1.0" encoding="utf-8"?>
<!-- Generated by IcoMoon.io -->
<!DOCTYPE svg PUBLIC "-//W3C//DTD SVG 1.1//EN" "http://www.w3.org/Graphics/SVG/1.1/DTD/svg11.dtd">
<svg version="1.1" xmlns="http://www.w3.org/2000/svg" xmlns:xlink="http://www.w3.org/1999/xlink" width="32" height="32" viewBox="0 0 32 32">
<path d="M15.214 5.518q0 0.518-0.304 0.938t-0.804 0.42-0.804-0.42-0.304-0.938 0.304-0.938 0.804-0.42 0.804 0.42 0.304 0.938zM12.286 30.089v-2.036q0-0.536-0.366-0.92t-0.902-0.384-0.893 0.384-0.357 0.92v2.036q0 0.536 0.366 0.929t0.884 0.393q0.536 0 0.902-0.393t0.366-0.929zM15.357 30.089v-2.036q0-0.536-0.357-0.92t-0.893-0.384-0.902 0.384-0.366 0.92v2.036q0 0.536 0.366 0.929t0.902 0.393q0.518 0 0.884-0.393t0.366-0.929zM18.464 30.089v-2.036q0-0.536-0.366-0.92t-0.902-0.384-0.902 0.384-0.366 0.92v2.036q0 0.536 0.366 0.929t0.902 0.393 0.902-0.393 0.366-0.929zM21.571 30.089v-2.036q0-0.536-0.366-0.92t-0.902-0.384-0.902 0.384-0.366 0.92v2.036q0 0.536 0.366 0.929t0.902 0.393 0.902-0.393 0.366-0.929zM26.357 17.875q-1.5 2.857-4.143 4.634t-5.768 1.777q-2.196 0-4.098-0.92t-3.188-2.446-2.018-3.527-0.732-4.143q0-1.571 0.375-3.107-1.857 3.125-1.857 6.964 0 2.893 1.161 5.571t3.304 4.482q0.536-1.018 1.625-1.018 1 0 1.536 0.893 0.571-0.893 1.554-0.893 1 0 1.536 0.893 0.571-0.893 1.554-0.893t1.554 0.893q0.536-0.893 1.536-0.893 0.5 0 0.938 0.277t0.67 0.723q2-1.679 3.161-4.134t1.304-5.134zM23.679 17.357q0-1.339-1.286-1.339-0.304 0-0.839 0.107-1.696 0.339-2.661 0.339-4.036 0-4.036-4.339 0-1.536 0.536-3.643-1.482 2.268-1.482 4.911 0 2.679 1.589 4.652t4.196 1.973q1.982 0 3.75-1.25 0.232-0.857 0.232-1.411zM15.786 5.589q0-0.893-0.571-1.598t-1.446-0.705-1.446 0.705-0.571 1.598q0 0.911 0.563 1.616t1.455 0.705 1.455-0.705 0.563-1.616zM27.018 11.643q0-1.714-0.67-3.196t-2.018-2.446-3.098-0.964q-1.375 0-2.661 0.625t-2.268 1.679q-0.857 2.839-0.857 4.786 0 1.857 0.813 2.804t2.634 0.946q0.946 0 2.536-0.339 0.643-0.107 0.946-0.107 0.911 0 1.384 0.5t0.473 1.429q0 0.464-0.071 0.821 1.339-1.214 2.098-2.955t0.759-3.58zM32 15.518q0 1.982-0.598 4.455t-1.67 3.652q-1.036 1.143-3.482 2.545t-4.071 1.866l-0.071 0.018v2.036q0 0.768-0.527 1.339t-1.295 0.571q-1 0-1.536-0.893-0.571 0.893-1.554 0.893t-1.554-0.893q-0.536 0.893-1.536 0.893-0.982 0-1.554-0.893-0.536 0.893-1.536 0.893-0.839 0-1.339-0.598t-0.5-1.455q-1.607 1.214-3.536 1.214-2.107 0-3.768-1.429 0.964-0.018 1.893-0.357-2.018-0.554-3.25-2.268 0.571 0.125 1.268 0.125 1.589 0 2.929-0.821-3.429-3.429-4.286-5.464-0.429-1-0.429-2.857 0-1.018 0.161-2.241t0.563-2.616 0.982-2.518 1.545-1.875 2.143-0.75q1.054 0 1.446 0.929 0.339-0.518 0.75-0.964 0.036-0.054 0.214-0.232t0.232-0.286q0.179-0.268 0.411-0.679t0.446-0.75 0.5-0.696q1.554-1.982 3.777-3.161t4.652-1.179q0.625 0 1.107 0.071 1.054-1.143 2.607-1.143 1.482 0 2.5 1.018 0.089 0.089 0.089 0.214 0 0.089-0.107 0.241t-0.223 0.286-0.286 0.304l-0.188 0.188q0.304 0.107 0.643 0.321t0.339 0.429q0 0.107-0.286 0.446 2.804 2.464 3.518 6.75 0.446-0.536 1.071-0.536 0.804 0 1.786 0.875 1.607 1.429 1.607 4.982z"></path>
</svg>
