<?xml version="1.0" encoding="utf-8"?>
<!-- Generated by IcoMoon.io -->
<!DOCTYPE svg PUBLIC "-//W3C//DTD SVG 1.1//EN" "http://www.w3.org/Graphics/SVG/1.1/DTD/svg11.dtd">
<svg version="1.1" xmlns="http://www.w3.org/2000/svg" xmlns:xlink="http://www.w3.org/1999/xlink" width="37" height="32" viewBox="0 0 37 32">
<path d="M0 16q0-2.321 0.911-4.438t2.438-3.643 3.643-2.438 4.438-0.911h13.714q2.321 0 4.438 0.911t3.643 2.438 2.438 3.643 0.911 4.438-0.911 4.438-2.438 3.643-3.643 2.438-4.438 0.911h-13.714q-2.321 0-4.438-0.911t-3.643-2.438-2.438-3.643-0.911-4.438zM25.143 25.143q1.857 0 3.545-0.723t2.92-1.955 1.955-2.92 0.723-3.545-0.723-3.545-1.955-2.92-2.92-1.955-3.545-0.723-3.545 0.723-2.92 1.955-1.955 2.92-0.723 3.545 0.723 3.545 1.955 2.92 2.92 1.955 3.545 0.723z"></path>
</svg>
