<?xml version="1.0" encoding="utf-8"?>
<!-- Generated by IcoMoon.io -->
<!DOCTYPE svg PUBLIC "-//W3C//DTD SVG 1.1//EN" "http://www.w3.org/Graphics/SVG/1.1/DTD/svg11.dtd">
<svg version="1.1" xmlns="http://www.w3.org/2000/svg" xmlns:xlink="http://www.w3.org/1999/xlink" width="27" height="32" viewBox="0 0 27 32">
<path d="M26.857 26.286q0 0.464-0.339 0.804t-0.804 0.339h-8.25q0.018 0.304 0.107 1.563t0.089 1.938q0 0.446-0.321 0.759t-0.768 0.313h-5.714q-0.446 0-0.768-0.313t-0.321-0.759q0-0.679 0.089-1.938t0.107-1.563h-8.25q-0.464 0-0.804-0.339t-0.339-0.804 0.339-0.804l7.179-7.196h-4.089q-0.464 0-0.804-0.339t-0.339-0.804 0.339-0.804l7.179-7.196h-3.518q-0.464 0-0.804-0.339t-0.339-0.804 0.339-0.804l6.857-6.857q0.339-0.339 0.804-0.339t0.804 0.339l6.857 6.857q0.339 0.339 0.339 0.804t-0.339 0.804-0.804 0.339h-3.518l7.179 7.196q0.339 0.339 0.339 0.804t-0.339 0.804-0.804 0.339h-4.089l7.179 7.196q0.339 0.339 0.339 0.804z"></path>
</svg>
