<?xml version="1.0" encoding="utf-8"?>
<!-- Generated by IcoMoon.io -->
<!DOCTYPE svg PUBLIC "-//W3C//DTD SVG 1.1//EN" "http://www.w3.org/Graphics/SVG/1.1/DTD/svg11.dtd">
<svg version="1.1" xmlns="http://www.w3.org/2000/svg" xmlns:xlink="http://www.w3.org/1999/xlink" width="30" height="32" viewBox="0 0 30 32">
<path d="M6.054 3.893h12.339l-0.464 1.286h-11.875q-1.964 0-3.366 1.411t-1.402 3.375v13.768q0 1.696 1.080 3.027t2.741 1.67q0.411 0.089 1.75 0.089v1.286h-0.804q-2.5 0-4.277-1.786t-1.777-4.286v-13.768q0-2.5 1.777-4.286t4.277-1.786zM21.25 0h4.411l-8.607 23.107q-0.411 1.089-0.723 1.848t-0.804 1.75-0.964 1.67-1.152 1.402-1.42 1.161-1.705 0.732-2.071 0.33v-3.482q2.911-0.464 3.929-3.25 0.357-0.929 0.357-1.875 0-0.964-0.357-1.893l-5.089-13.089h4.071l3.339 10.446zM29.714 9.964v19.839h-14.196q0.661-0.982 0.804-1.304h12.107v-18.536q0-1.518-0.884-2.768t-2.313-1.768l0.446-1.196q1.804 0.607 2.92 2.205t1.116 3.527z"></path>
</svg>
